<mxfile host="app.diagrams.net" modified="2023-10-24T18:25:02.119Z" agent="Mozilla/5.0 (Macintosh; Intel Mac OS X 10_15_7) AppleWebKit/537.36 (KHTML, like Gecko) Chrome/118.0.0.0 Safari/537.36" version="22.0.6" etag="265hbHBuRlbuRMTUAI_y" type="github">
  <diagram name="Page-1" id="SdBYq217SC5ZIg3aM_3a">
    <mxGraphModel>
      <root>
        <mxCell id="0" />
        <mxCell id="1" parent="0" />
      </root>
    </mxGraphModel>
  </diagram>
</mxfile>
